/vscmnt/brussel_pixiu_data/_data_brussel/112/vsc11236/PredSimResults/SUBJ10opt3D/weighted-trackIG/worker_02.mot
version=1
nRows=4
nColumns=50
inDegrees=yes
endheader
                time	         pelvis_tilt	         pelvis_list	     pelvis_rotation	           pelvis_tx	           pelvis_ty	           pelvis_tz	       hip_flexion_r	     hip_adduction_r	      hip_rotation_r	        knee_angle_r	       ankle_angle_r	         mtp_angle_r	       hip_flexion_l	     hip_adduction_l	      hip_rotation_l	        knee_angle_l	       ankle_angle_l	         mtp_angle_l	    lumbar_extension	      lumbar_bending	     lumbar_rotation	 ercspn_r/activation	 intobl_r/activation	 extobl_r/activation	    abd_r/activation	    add_r/activation	hamstrings_r/activation	bifemsh_r/activation	glut_max_r/activation	iliopsoas_r/activation	rect_fem_r/activation	  vasti_r/activation	gastroc_r/activation	 soleus_r/activation	tib_ant_r/activation	 ercspn_l/activation	 intobl_l/activation	 extobl_l/activation	    abd_l/activation	    add_l/activation	hamstrings_l/activation	bifemsh_l/activation	glut_max_l/activation	iliopsoas_l/activation	rect_fem_l/activation	  vasti_l/activation	gastroc_l/activation	 soleus_l/activation	tib_ant_l/activation	
          1.14887708	         -4.12709067	         -0.90684107	          6.73258655	          1.29823110	          0.82319513	         -0.01280728	         30.52274771	         -1.41087361	         -5.68207828	         -7.77678332	          2.99279866	          0.26331130	        -15.55116640	         -0.62800489	         -0.50601649	         -6.56314410	          8.72848381	         26.57774996	         -6.29754002	         -0.45929914	         -6.92328295	          0.10791010	          0.14761491	          0.00999999	          0.00999999	          0.20837665	          0.10955162	          0.19965585	          0.05572391	          0.09558244	          0.01000000	          0.00999999	          0.01691470	          0.01325308	          0.28911240	          0.09490561	          0.00999999	          0.00999999	          0.05743093	          0.01000000	          0.01141114	          0.21314381	          0.01494306	          0.42145125	          0.01000000	          0.00999999	          0.31209435	          0.25829869	          0.02308561	
          1.16036585	         -4.16347169	         -0.89038427	          6.83630993	          1.31375887	          0.82183212	         -0.01247302	         30.37683211	         -1.28098682	         -5.31478023	         -9.35655477	          2.64582321	          0.24950373	        -15.57024830	         -0.76661558	         -0.82497415	         -8.39623262	          8.08670920	         28.26906103	         -6.05843863	          0.02773633	         -7.24748446	          0.09056815	          0.12389211	          0.00999999	          0.01000000	          0.17488899	          0.09510928	          0.16756970	          0.10037406	          0.08022164	          0.00999999	          0.00999999	          0.01419639	          0.01112322	          0.35719817	          0.11113983	          0.00999999	          0.00999999	          0.04820135	          0.01678257	          0.02047977	          0.17889004	          0.01254160	          0.35372094	          0.00999999	          0.00999999	          0.27392667	          0.24742366	          0.01937558	
          1.17185462	         -4.19092798	         -0.89141483	          6.90168800	          1.32952523	          0.82076483	         -0.01201269	         30.07069115	         -1.14052644	         -5.00830542	        -10.66197801	          2.18283588	          0.24065996	        -15.43855093	         -0.93729794	         -1.16865013	        -10.51577738	          7.27327492	         29.92644972	         -5.80245890	          0.52976315	         -7.54083872	          0.10342344	          0.10398174	          0.00999999	          0.05499364	          0.17104718	          0.08295927	          0.14064002	          0.11335394	          0.06732943	          0.00999999	          0.00999999	          0.01191492	          0.00999999	          0.41452627	          0.12365555	          0.00999999	          0.00999999	          0.04045504	          0.01408549	          0.01718857	          0.15014109	          0.01052607	          0.29687538	          0.00999999	          0.00999999	          0.22990464	          0.23051243	          0.01626178	
          1.18334339	         -4.21020025	         -0.88996842	          6.92859120	          1.34532839	          0.82009419	         -0.01143272	         29.70992354	         -1.00036943	         -4.80918876	        -11.88312192	          1.71616871	          0.22763846	        -15.10754101	         -1.11914537	         -1.53948371	        -12.97414642	          6.27388572	         31.45364850	         -5.55270149	          1.02408509	         -7.79824196	          0.10645142	          0.08727111	          0.00999999	          0.09412303	          0.20841101	          0.07124923	          0.11803813	          0.11839275	          0.05650910	          0.00999999	          0.01000000	          0.01000011	          0.00999999	          0.44635661	          0.14995531	          0.00999999	          0.00999999	          0.03395362	          0.01182185	          0.01685113	          0.12601232	          0.01000000	          0.24916533	          0.00999999	          0.00999999	          0.19295727	          0.21147184	          0.01364839	
